PathFileType	3	(X/Y/Z)	C:\Users\koon_\Desktop\
DataRate	CameraRate	NumFrames	NumMarkers	Units	OrigDataRate	OrigDataStartFrame	OrigNumFrames
100.0	100.0	5	27	mm	100.0	3000	3999	
Frame#	Time	get:LFHD			get:RFHD			get:LBHD			get:RBHD			get:C7			get:T10			get:CLAV			get:STRN			get:RBAK			get:LSHO			get:LUPA			get:LELB			get:LFRA			get:LWRA			get:LWRB			get:LFIN			get:RSHO			get:RUPA			get:RELB			get:RFRA			get:RWRA			get:RWRB			get:RFIN			get:LASI			get:RASI			get:LPSI			get:RPSI			
		X1	Y1	Z1	X2	Y2	Z2	X3	Y3	Z3	X4	Y4	Z4	X5	Y5	Z5	X6	Y6	Z6	X7	Y7	Z7	X8	Y8	Z8	X9	Y9	Z9	X10	Y10	Z10	X11	Y11	Z11	X12	Y12	Z12	X13	Y13	Z13	X14	Y14	Z14	X15	Y15	Z15	X16	Y16	Z16	X17	Y17	Z17	X18	Y18	Z18	X19	Y19	Z19	X20	Y20	Z20	X21	Y21	Z21	X22	Y22	Z22	X23	Y23	Z23	X24	Y24	Z24	X25	Y25	Z25	X26	Y26	Z26	X27	Y27	Z27	
3000	29.99	-161.9196	1553.4316	-52.928791	-194.79398	1534.0782	-207.4008	-42.163258	1566.5359	-87.118332	-55.058258	1563.3558	-214.66667	-10.283276	1397.8119	-170.44418	84.636177	1164.1555	-218.65109	-159.19124	1271.9396	-106.93852	-116.20215	1089.5569	-74.37674	-14.334222	1332.3708	-269.57092	-67.150337	1390.8361	-27.031055	-140.81406	1336.9264	46.203339	-270.71582	1225.1564	81.409599	-398.09576	1240.6555	53.391197	-490.2135	1211.6764	34.625374	-481.65393	1169.4602	86.911934	-566.70825	1188.2913	91.477425	-138.78592	1373.7661	-248.34117	-298.06818	1317.4666	-291.59686	-384.18872	1239.4442	-308.21301	-463.77182	1289.7823	-258.14258	-610.48181	1260.1315	-208.53197	-610.2066	1216.2157	-264.01187	-683.24316	1256.5033	-245.0363	68.496414	929.38257	-29.754526	-149.45488	927.18799	-196.88405	120.90671	979.49707	-231.13414	36.810715	967.69299	-297.02176
3001	30	-160.40842	1554.1305	-52.861073	-193.80446	1535.1176	-207.39337	-40.742813	1566.8579	-87.269821	-54.022896	1563.8591	-214.76653	-9.5965481	1397.8419	-170.80733	84.156403	1163.7852	-219.1131	-158.76927	1272.5594	-106.7746	-116.56006	1089.9567	-74.265129	-14.031526	1332.4353	-269.91113	-65.887711	1390.9016	-26.966574	-139.24007	1336.4637	46.683342	-268.93329	1224.1461	82.09449	-396.29623	1240.895	54.553944	-488.62445	1212.9614	35.439114	-480.4671	1170.2291	87.135551	-565.69171	1189.9495	91.327202	-138.52075	1374.176	-248.49956	-297.96646	1316.5774	-292.18201	-383.47983	1238.3363	-310.52484	-462.7616	1288.5671	-258.92535	-609.29718	1261.1763	-208.48306	-609.69006	1216.5211	-263.12082	-681.9823	1257.8403	-244.76146	68.013626	929.3999	-29.844553	-150.21959	927.18176	-196.69608	120.24225	979.31812	-231.26271	36.006668	967.53412	-297.0947
3002	30.01	-158.8085	1554.832	-52.74229	-192.78893	1536.0535	-207.04919	-39.181461	1567.2235	-87.467224	-52.883099	1564.3632	-214.92197	-8.8206367	1397.8804	-171.11394	83.538765	1163.3855	-219.56894	-158.29518	1273.1968	-106.49432	-116.86626	1090.3241	-74.156281	-13.731531	1332.5317	-270.16782	-64.52774	1390.9003	-26.881392	-137.43013	1335.9094	47.186024	-266.91672	1223.4434	83.948715	-394.228	1241.0444	55.768402	-486.82233	1214.3082	36.336823	-479.10516	1171.3556	88.153038	-564.34491	1191.1903	91.478508	-138.24295	1374.5079	-248.75562	-297.84879	1315.3915	-292.86401	-382.71121	1235.6906	-310.46292	-461.60178	1287.1753	-260.25537	-607.8504	1262.1403	-208.10948	-609.0603	1216.6774	-262.01541	-680.52533	1259.2451	-244.54915	67.388634	929.40735	-29.946129	-151.0123	927.12292	-196.48055	119.44558	979.16266	-231.4624	34.923946	967.26721	-296.8894
3003	30.02	-157.09644	1555.6029	-52.618633	-191.56557	1537.0605	-206.80763	-37.590973	1567.5884	-87.677055	-51.635723	1564.874	-215.0743	-8.066618	1397.9285	-171.45813	82.939453	1162.9655	-220.04181	-157.81459	1273.8859	-106.16724	-117.22334	1090.7593	-73.901009	-13.40138	1332.6324	-270.45947	-62.974499	1390.8621	-26.878706	-135.44667	1335.2922	47.674328	-264.64523	1222.3208	84.801445	-391.82898	1241.2334	57.264347	-484.92987	1216.1832	37.344631	-477.64294	1172.6888	88.702873	-562.76202	1193.0609	92.3097	-138.03592	1374.8502	-249.05191	-297.67377	1313.9081	-293.74103	-381.75912	1233.1517	-311.48108	-460.18457	1285.4711	-261.34045	-606.1131	1263.0179	-207.69159	-608.12219	1216.6039	-260.53995	-678.80756	1260.6533	-244.15569	66.687447	929.39844	-30.055788	-151.93321	927.03485	-196.37271	118.64177	978.9967	-231.68472	33.98106	967.14594	-296.99194
3004	30.03	-155.23042	1556.3239	-52.467335	-190.35825	1538.184	-206.7431	-35.810699	1567.8875	-87.911957	-50.356335	1565.3563	-215.30159	-7.294477	1397.9752	-171.85785	82.340645	1162.4573	-220.60385	-157.30331	1274.6066	-105.83691	-117.62601	1091.2292	-73.600502	-13.070621	1332.7183	-270.77722	-61.326622	1390.7792	-26.69318	-133.25014	1334.5266	48.324623	-261.97473	1221.1796	86.67437	-389.14792	1241.4116	58.936329	-482.5369	1217.2572	38.161495	-475.7753	1174.0167	89.548927	-561.02075	1195.2048	92.820915	-137.84894	1374.9415	-249.2807	-297.43198	1312.1027	-294.88791	-380.66199	1230.1528	-312.01785	-458.58804	1283.6833	-262.5235	-604.02002	1263.7698	-206.91461	-606.99817	1216.6077	-259.11136	-676.96246	1262.0654	-243.56198	66.060425	929.36182	-30.075277	-152.84212	926.9552	-195.9986	117.70028	978.78387	-231.91313	33.038563	967.11658	-297.3902
